<svg xmlns="http://www.w3.org/2000/svg" viewBox="0 0 420 92" role="img" aria-labelledby="title desc"><title id="title">PescaDiVerona</title><desc id="desc">Logo editoriale elegante ispirato al mondo della pesca</desc><rect width="420" height="92" fill="none"/><g transform="translate(0 6)"><path d="M22 40c18-26 56-29 78-11-11 0-18 7-22 12 16 2 26 13 30 24-20-8-40-9-59-6l-10 12H16l12-15c-8-4-12-9-13-16 2 0 4 0 7 0Z" fill="#2b7a78"/><circle cx="73" cy="35" r="3" fill="#fff"/><path d="M109 16c5 5 8 11 8 20 0 16-10 29-24 35" fill="none" stroke="#b88a44" stroke-width="3" stroke-linecap="round"/><circle cx="92" cy="72" r="6" fill="none" stroke="#b88a44" stroke-width="3"/></g><text x="128" y="42" fill="#263432" font-family="Playfair Display, serif" font-size="34" font-weight="700">PescaDiVerona</text><text x="130" y="66" fill="#5b6f6b" font-family="Inter, sans-serif" font-size="12" letter-spacing="2">PESCA E NON SOLO</text></svg>